# xmcd CD Database Entry
#
# Track frame offsets:
# 150
# 20850
# 35285
# 49210
# 62607
# 78357
# 91135
# 105382
# 120777
# 137130
# 149437
# 165895
#
# Disc length: 2389 seconds
#
# Revision: 1
# Processed by: cddbd v1.4PL0 Copyright (c) Steve Scherf et al.
# Submitted via: tcd 2.0b
#
DISCID=9009530c
DTITLE=Ornella Vanoni - I Grandi Successi Originali cd2
DYEAR=1900
DGENRE=pop
TTITLE0=l'appuntamento
TTITLE1=Domani è un altro giorno
TTITLE2=Senza fine
TTITLE3=Casa bianca
TTITLE4=Il tempo d impazzire
TTITLE5=Io ti darò di più
TTITLE6=La musica è finita
TTITLE7=Una ragione di più
TTITLE8=Eternità
TTITLE9=Mi piaci mi piaci
TTITLE10=Tu si' na cosa grande
TTITLE11=Ammore mio
EXTD=
EXTT0=
EXTT1=
EXTT2=
EXTT3=
EXTT4=
EXTT5=
EXTT6=
EXTT7=
EXTT8=
EXTT9=
EXTT10=
EXTT11=
PLAYORDER=
